<svg height="512pt" viewBox="-33 0 511 512" width="512pt" xmlns="http://www.w3.org/2000/svg"><path d="m293.867188 189.347656h60.214843c9.417969 0 13.707031 11.75 6.511719 17.820313l-352.519531 297.257812 98.964843-214.089843h-78.222656c-8.035156 0-12.855468-8.929688-8.441406-15.644532l172.542969-262.5625c1.867187-2.84375 5.039062-4.554687 8.4375-4.554687h221.507812c8.546875 0 13.230469 9.953125 7.78125 16.539062zm0 0" fill="#fff148"/><path d="m422.867188 7.574219h-31.046876l-179.285156 205.429687c-5.699218 6.53125-1.058594 16.738282 7.609375 16.738282h13.019531c9.128907 0 13.574219 11.15625 6.941407 17.433593l-201.128907 190.402344-30.902343 66.847656 352.519531-297.257812c7.195312-6.070313 2.90625-17.820313-6.511719-17.820313h-60.214843l136.777343-165.234375c5.449219-6.585937.769531-16.539062-7.777343-16.539062zm0 0" fill="#ffe600"/><path d="m418.078125 398.390625h-218.128906c-11.15625 0-20.199219-9.042969-20.199219-20.195313v-90.890624c0-11.152344 9.042969-20.195313 20.199219-20.195313h218.128906c11.15625 0 20.199219 9.042969 20.199219 20.195313v90.890624c0 11.152344-9.042969 20.195313-20.199219 20.195313zm0 0" fill="#ff5f5f"/><path d="m418.078125 267.109375v93.914063c0 11.15625-9.042969 20.199218-20.195313 20.199218h-217.878906c1.464844 9.714844 9.824219 17.167969 19.945313 17.167969h218.128906c11.15625 0 20.199219-9.042969 20.199219-20.199219v-90.886718c0-11.152344-9.042969-20.195313-20.199219-20.195313zm0 0" fill="#ff3939"/><path d="m418.078125 259.535156h-107.835937l55.242187-46.585937c5.734375-4.839844 7.773437-12.519531 5.195313-19.570313-2.578126-7.050781-9.09375-11.605468-16.597657-11.605468h-44.117187l126.511718-152.828126c4.414063-5.328124 5.324219-12.53125 2.378907-18.792968-2.945313-6.261719-9.070313-10.152344-15.988281-10.152344h-221.515626c-5.96875 0-11.488281 2.980469-14.761718 7.96875l-52.753906 80.273438c-2.300782 3.496093-1.328126 8.191406 2.167968 10.488281s8.191406 1.328125 10.488282-2.167969l52.761718-80.28125c.464844-.710938 1.25-1.132812 2.097656-1.132812h221.515626c1.390624 0 2.027343.910156 2.28125 1.449218.253906.542969.550781 1.613282-.339844 2.6875l-136.777344 165.234375c-1.871094 2.261719-2.269531 5.398438-1.019531 8.054688 1.25 2.652343 3.917969 4.347656 6.851562 4.347656h60.21875c1.457031 0 2.09375.902344 2.371094 1.65625.277344.757813.371094 1.859375-.738281 2.792969l-68.96875 58.164062h-86.796875c-15.316407 0-27.773438 12.457032-27.773438 27.769532v68.835937l-142.921875 120.519531 84.660156-183.148437c1.085938-2.34375.898438-5.078125-.492187-7.257813-1.390625-2.175781-3.796875-3.492187-6.382813-3.492187h-78.222656c-1.3125 0-1.957031-.832031-2.226562-1.328125-.265625-.492188-.605469-1.488282.113281-2.582032l100.542969-153.003906c2.296875-3.496094 1.324218-8.191406-2.171875-10.488281-3.496094-2.296875-8.191407-1.328125-10.488281 2.167969l-100.542969 153.003906c-3.570313 5.4375-3.871094 12.371094-.785157 18.097656 3.089844 5.722656 9.050782 9.28125 15.558594 9.28125h66.378906l-93.996093 203.335938c-1.488281 3.222656-.539063 7.050781 2.28125 9.203125 1.359375 1.035156 2.976562 1.550781 4.59375 1.550781 1.738281 0 3.476562-.597656 4.882812-1.785156l159.222657-134.257813v2.234375c0 15.316406 12.457031 27.773438 27.769531 27.773438h152.488281c4.183594 0 7.574219-3.390625 7.574219-7.574219s-3.390625-7.574219-7.574219-7.574219h-152.488281c-6.960938 0-12.625-5.664062-12.625-12.625v-90.886718c0-6.960938 5.664062-12.621094 12.625-12.621094h218.128906c6.960937 0 12.625 5.660156 12.625 12.621094v90.886718c0 6.960938-5.664063 12.625-12.625 12.625h-30.296875c-4.179688 0-7.574219 3.390625-7.574219 7.574219s3.394531 7.574219 7.574219 7.574219h30.296875c15.3125 0 27.773437-12.457032 27.773437-27.773438v-90.886718c0-15.3125-12.460937-27.769532-27.773437-27.769532zm0 0"/><path d="m211.5625 321.640625v22.21875c0 16.984375 13.816406 30.800781 30.800781 30.800781s30.800781-13.816406 30.800781-30.800781v-22.21875c0-16.984375-13.816406-30.800781-30.800781-30.800781s-30.800781 13.816406-30.800781 30.800781zm46.453125 0v22.21875c0 8.628906-7.023437 15.652344-15.652344 15.652344-8.632812 0-15.652343-7.023438-15.652343-15.652344v-22.21875c0-8.628906 7.019531-15.652344 15.652343-15.652344 8.628907 0 15.652344 7.023438 15.652344 15.652344zm0 0"/><path d="m388.792969 343.351562c4.183593 0 7.574219-3.390624 7.574219-7.574218 0-4.179688-3.390626-7.574219-7.574219-7.574219h-20.703125v-19.691406c0-1.390625 1.132812-2.523438 2.527344-2.523438h28.273437c4.183594 0 7.574219-3.390625 7.574219-7.574219 0-4.183593-3.390625-7.574218-7.574219-7.574218h-28.277344c-9.742187 0-17.671875 7.929687-17.671875 17.671875v58.574219c0 4.183593 3.390625 7.574218 7.574219 7.574218s7.574219-3.390625 7.574219-7.574218v-23.734376zm0 0"/><path d="m305.984375 305.988281h28.273437c4.183594 0 7.574219-3.390625 7.574219-7.574219 0-4.183593-3.390625-7.574218-7.574219-7.574218h-28.273437c-9.746094 0-17.671875 7.929687-17.671875 17.671875v58.574219c0 4.183593 3.390625 7.574218 7.570312 7.574218 4.183594 0 7.574219-3.390625 7.574219-7.574218v-23.734376h20.703125c4.183594 0 7.574219-3.390624 7.574219-7.574218 0-4.179688-3.390625-7.574219-7.574219-7.574219h-20.703125v-19.691406c0-1.390625 1.132813-2.523438 2.527344-2.523438zm0 0"/></svg>